PathFileType	4	(X/Y/Z)	C:\Users\Willi\SynologyDrive\Deimel_MSc_Deadlift\Athlete_03\Athlete_3_22_07_06\dl_85\marker_experimental.trc
DataRate	CameraRate	NumFrames	NumMarkers	Units	OrigDataRate	OrigDataStartFrame	OrigNumFrames
200.000000	200.000000	4	59	mm	200.000000	199	1597
Frame#	Time	BR			GLAB			RFHD			LFHD			C7			T6			SPINMOL			SPINM2			SPINM3			BELTOL			BELT2			BELT3			SACROL			SACR2			SACR3			LTHOL			LTH2			LTH3			LSHAOL			LSHA2			LSHA3			LHEE			LTOE			LM5			RTHOL			RTH2			RTH3			RSHAOL			RSHA2			RSHA3			RHEE			RTOE			RM5			STRN			XIPH			LACR			LUAOL			LUA3			LLAOL			LLA2			LLA3			LWRU			RACR			RUAOL			RUA2			RUA3			RLAOL			RLA2			RLA3			RWRU			LUA2			BL			T12			USERMO0			USERMO1			USERMO2			USERMO3			USERMO4			USERMO5			
		X1	Y1	Z1	X2	Y2	Z2	X3	Y3	Z3	X4	Y4	Z4	X5	Y5	Z5	X6	Y6	Z6	X7	Y7	Z7	X8	Y8	Z8	X9	Y9	Z9	X10	Y10	Z10	X11	Y11	Z11	X12	Y12	Z12	X13	Y13	Z13	X14	Y14	Z14	X15	Y15	Z15	X16	Y16	Z16	X17	Y17	Z17	X18	Y18	Z18	X19	Y19	Z19	X20	Y20	Z20	X21	Y21	Z21	X22	Y22	Z22	X23	Y23	Z23	X24	Y24	Z24	X25	Y25	Z25	X26	Y26	Z26	X27	Y27	Z27	X28	Y28	Z28	X29	Y29	Z29	X30	Y30	Z30	X31	Y31	Z31	X32	Y32	Z32	X33	Y33	Z33	X34	Y34	Z34	X35	Y35	Z35	X36	Y36	Z36	X37	Y37	Z37	X38	Y38	Z38	X39	Y39	Z39	X40	Y40	Z40	X41	Y41	Z41	X42	Y42	Z42	X43	Y43	Z43	X44	Y44	Z44	X45	Y45	Z45	X46	Y46	Z46	X47	Y47	Z47	X48	Y48	Z48	X49	Y49	Z49	X50	Y50	Z50	X51	Y51	Z51	X52	Y52	Z52	X53	Y53	Z53	X54	Y54	Z54	X55	Y55	Z55	X56	Y56	Z56	X57	Y57	Z57	X58	Y58	Z58	X59	Y59	Z59	

200	0.995	243.7396697998047	266.4282836914062	-91.88756561279295	576.02783203125	1099.536987304688	-1210.805541992188	525.7006225585938	1136.283447265625	-1133.242309570312	523.440185546875	1135.339111328125	-1291.233032226562	341.6283569335938	1099.056884765625	-1207.434326171875	160.0727233886719	1049.667236328125	-1209.801025390625	133.3670959472656	1041.86962890625	-1210.3916015625	81.03769683837891	1018.534362792969	-1154.268188476562	78.14202117919922	1014.531799316406	-1203.899291992188	-2.67259407043457	995.4412841796876	-1207.557006835938	-50.27361679077148	960.1176147460939	-1153.914672851562	-55.71051788330078	963.0379028320314	-1203.66650390625	-111.5024185180664	902.4949951171876	-1222.701782226562	-98.98371124267578	905.8728027343751	-1172.8369140625	-151.3370056152344	867.1249389648439	-1182.759399414062	50.77052688598633	673.5523681640626	-1427.919799804688	55.59307861328125	593.9612426757814	-1422.614501953125	92.7061767578125	628.0880126953126	-1426.249267578125	167.6250457763672	345.6182250976564	-1448.238525390625	118.923942565918	283.7082824707032	-1446.917846679688	168.2279968261719	283.7509765625001	-1442.916137695312	39.63444900512695	68.78448486328134	-1374.202514648438	250.1350555419922	72.06919097900399	-1374.15478515625	207.9469604492188	55.90591049194345	-1482.366455078125	78.70057678222656	644.0839843750001	-993.1596069335938	157.5909729003906	631.7930297851564	-995.8104248046875	120.6657104492188	598.1467285156251	-992.6626586914062	162.4831695556641	341.0324401855469	-978.708740234375	191.235107421875	268.6552429199219	-985.6168212890625	143.6862640380859	283.1437683105469	-984.8182373046875	44.90571212768555	66.29989624023445	-1068.447875976562	253.9573822021484	65.29713439941412	-1043.517700195312	202.4563140869141	68.88028717041021	-947.5293579101562	375.8751831054688	930.0325927734376	-1216.117797851562	nan	nan	nan	343.3854675292969	964.1804199218751	-1416.374145507812	298.3653259277344	822.6870117187501	-1475.10693359375	305.3840637207031	757.4254150390626	-1470.914672851562	291.1369323730469	536.6720581054689	-1475.117553710938	270.8025817871094	474.5020751953126	-1481.80615234375	304.1344604492188	480.797332763672	-1445.549194335938	282.1803588867188	384.000457763672	-1461.601196289062	358.203369140625	954.8441162109376	-1018.781921386719	322.9650573730469	782.6488647460939	-982.1464233398438	326.8330383300781	723.2438354492189	-1010.110717773438	311.1431274414062	720.5270996093751	-962.3369750976562	301.054931640625	523.8850097656251	-969.760986328125	305.8697509765625	467.5065612792969	-1001.217102050781	288.6128540039062	462.9651184082032	-953.44189453125	278.03076171875	385.9117736816407	-951.4639282226562	261.3750305175781	771.0434570312501	-1494.093017578125	229.2523803710938	260.5202026367189	-2314.369873046875	46.62220001220703	995.5940551757814	-1205.737548828125	0.2000750005245209	0.03974299877882006	-0.3313910067081451	0.02530469931662083	0.2061109989881516	-0.2052479982376099	0.1209340021014214	0.05700549855828286	-0.1320870071649551	0.06737580150365829	1.666900038719177	-2.065670013427734	2.014339923858643	2.977610111236572	-1.957890033721924	2.855770111083984	0	0	
201	1	243.4367828369141	266.9681396484375	-91.91367340087889	575.9588012695312	1099.981567382812	-1210.8212890625	525.68115234375	1136.7568359375	-1133.226928710938	523.3749389648438	1135.853149414062	-1291.23291015625	341.5938110351562	1099.679321289062	-1207.40869140625	159.9594116210938	1050.487182617188	-1209.762817382812	133.2455139160156	1042.709350585938	-1210.348999023438	80.89115142822266	1019.412841796875	-1154.226440429688	77.98918914794922	1015.432434082031	-1203.861206054688	-2.959017515182495	996.3367919921876	-1207.508056640625	-50.56006240844727	961.0046386718751	-1153.87109375	-55.99936294555664	963.9354858398439	-1203.622192382812	-111.7736740112305	903.3845825195314	-1222.659912109375	-99.26213073730469	906.7590942382814	-1172.812133789062	-151.6112670898438	868.0031738281251	-1182.737670898438	50.32661437988281	674.1409301757814	-1427.970703125	54.99691390991211	594.5374145507814	-1422.627075195312	92.17012786865234	628.5895385742189	-1426.320678710938	167.1702270507812	345.6864013671876	-1448.282104492188	118.5851821899414	283.6854553222657	-1446.975463867188	167.8807220458984	283.822967529297	-1442.910888671875	39.63786697387695	68.72891998291024	-1374.202026367188	250.1273803710938	72.06927490234384	-1374.135620117188	207.9418487548828	55.90704345703134	-1482.364135742188	78.27357482910156	644.5647583007814	-993.1396484375	157.1374053955078	632.0751953125001	-995.744384765625	120.1268997192383	598.5203857421876	-992.65869140625	162.0411529541016	341.1721801757813	-978.6889038085938	190.9846038818359	268.8620605468751	-985.652099609375	143.3987121582031	283.2408447265626	-984.80078125	44.89749526977539	66.24826049804695	-1068.463134765625	253.9532775878906	65.28484344482428	-1043.543701171875	202.4609985351562	68.90489196777349	-947.556884765625	375.6690368652344	930.6340942382814	-1216.095581054688	nan	nan	nan	343.2481079101562	964.7689208984376	-1416.330444335938	298.1827392578125	823.3262939453126	-1475.048217773438	305.1740417480469	758.0615844726564	-1470.85302734375	290.9765319824219	537.3426513671876	-1474.98876953125	270.6221008300781	475.1898498535157	-1481.744018554688	303.88134765625	481.4592590332032	-1445.420288085938	281.924560546875	384.6739196777345	-1461.516479492188	358.0540466308594	955.4104003906251	-1018.781555175781	322.7452392578125	783.2653808593751	-982.1951904296875	326.5643005371094	723.8566894531251	-1010.186218261719	310.8815002441406	721.1324462890626	-962.4086303710938	300.7977600097656	524.5066528320314	-969.9583129882812	305.5099792480469	468.1414489746094	-1001.436645507812	288.3892211914062	463.5877380371094	-953.61669921875	277.7608642578125	386.5035400390626	-951.5816040039062	261.1792602539062	771.6964111328126	-1494.046997070312	229.0342712402344	261.0030822753907	-2314.397705078125	46.4130744934082	996.4841308593751	-1205.693969726562	0.1939769983291626	0.03818460181355478	-0.3343220055103302	0.02588919922709465	0.2061820030212402	-0.2005289942026138	0.1193580031394958	0.0608745999634266	-0.1271750032901764	0.07105010002851486	1.670910000801087	-2.062819957733154	2.014489889144897	2.977629899978638	-1.956089973449707	2.856019973754883	0	0	
202	1.005	243.1356658935547	267.509521484375	-91.93903350830077	575.8916015625	1100.427856445312	-1210.829833984375	525.6630859375	1137.230834960938	-1133.20458984375	523.3156127929688	1136.37548828125	-1291.225219726562	341.5630493164062	1100.3125	-1207.38232421875	159.8488922119141	1051.323852539062	-1209.725341796875	133.1268463134766	1043.565551757812	-1210.307495117188	80.74687957763672	1020.310363769531	-1154.185791015625	77.83847045898438	1016.351684570313	-1203.82421875	-3.24559211730957	997.2520751953126	-1207.460815429688	-50.84772109985352	961.9127807617189	-1153.828857421875	-56.28936767578125	964.8544311523439	-1203.579833984375	-112.0505828857422	904.2974853515626	-1222.616577148438	-99.542236328125	907.6689453125001	-1172.789794921875	-151.8894195556641	868.9061279296876	-1182.716674804688	49.87084197998047	674.7528686523439	-1428.026611328125	54.38417434692383	595.1363525390626	-1422.645751953125	91.61959838867188	629.1114501953126	-1426.396484375	166.7062530517578	345.7510681152345	-1448.328247070312	118.2380447387695	283.6598510742189	-1447.038818359375	167.5251770019531	283.8936462402345	-1442.906372070312	39.63697052001953	68.67636871337899	-1374.201293945312	250.1194000244141	72.0702667236329	-1374.116943359375	207.9371795654297	55.90823745727548	-1482.362182617188	77.82084655761719	645.0571899414064	-993.1039428710938	156.6578826904297	632.3658447265626	-995.6572875976562	119.5600433349609	598.9047241210939	-992.6364135742188	161.5907745361328	341.3034057617188	-978.6555786132812	190.7193450927734	269.0726928710938	-985.6756591796875	143.1046752929688	283.3288879394532	-984.7739868164062	44.89167022705078	66.19531250000007	-1068.478881835938	253.9490966796875	65.27369689941412	-1043.56884765625	202.4650115966797	68.92882537841803	-947.5833740234375	375.4608154296875	931.2465820312501	-1216.070434570312	nan	nan	nan	343.1116638183594	965.3680419921876	-1416.284545898438	297.9930419921875	823.9783935546876	-1474.994262695312	304.9541320800781	758.7115478515626	-1470.797973632812	290.800537109375	538.0311889648439	-1474.87158203125	270.4280700683594	475.8951416015626	-1481.689575195312	303.6231689453125	482.1401367187501	-1445.306762695312	281.6641235351562	385.3672180175782	-1461.436767578125	357.9022521972656	955.9925537109376	-1018.776489257812	322.5255126953125	783.8963623046876	-982.2400512695312	326.2958679199219	724.4848632812501	-1010.261169433594	310.6210632324219	721.7505493164064	-962.4796752929688	300.5499877929688	525.1413574218751	-970.1725463867188	305.1419982910156	468.7879333496094	-1001.671081542969	288.1752624511719	464.2263793945313	-953.7991333007812	277.491943359375	387.1098632812501	-951.6980590820312	260.9738159179688	772.3650512695314	-1494.00634765625	228.8193054199219	261.4905090332032	-2314.42578125	46.204833984375	997.3934936523439	-1205.651245117188	0.188061997294426	0.03663099929690363	-0.3386690020561218	0.02659120038151741	0.2063360065221786	-0.1958319991827011	0.1174890026450157	0.06487239897251131	-0.1227379962801933	0.07522019743919373	1.680279970169068	-2.0592200756073	2.014580011367798	2.977669954299927	-1.954399943351745	2.85627007484436	0	0	
203	1.01	242.8356018066406	268.0537414550781	-91.96371459960936	575.8275146484375	1100.873657226562	-1210.830932617188	525.6478881835938	1137.7041015625	-1133.175659179688	523.2643432617188	1136.903198242188	-1291.21044921875	341.5367431640625	1100.955810546875	-1207.355712890625	159.7416076660156	1052.17578125	-1209.689331054688	133.0114593505859	1044.437377929688	-1210.26806640625	80.60523223876953	1021.225524902344	-1154.147216796875	77.69045257568359	1017.288146972656	-1203.789428710938	-3.531706094741821	998.1854248046876	-1207.416625976562	-51.13620376586914	962.8406372070314	-1153.789672851562	-56.57990264892578	965.7927246093751	-1203.541015625	-112.3315505981445	905.2310791015626	-1222.574951171875	-99.82347869873047	908.6005859375001	-1172.771118164062	-152.170654296875	869.8318481445314	-1182.697998046875	49.40599060058594	675.3853149414064	-1428.087768554688	53.75819396972656	595.7550048828126	-1422.670654296875	91.05780792236328	629.6512451171876	-1426.475708007812	166.2344970703125	345.8125000000001	-1448.376098632812	117.8834915161133	283.632049560547	-1447.1064453125	167.1626281738281	283.963592529297	-1442.901733398438	39.63186645507812	68.62738800048837	-1374.200317382812	250.1112365722656	72.07218170166024	-1374.099487304688	207.9326477050781	55.90962600708017	-1482.360107421875	77.3424072265625	645.5618286132814	-993.0514526367188	156.15234375	632.6659545898439	-995.547607421875	118.9652938842773	599.3005981445314	-992.5941162109375	161.1332855224609	341.4263916015626	-978.6065063476562	190.4399261474609	269.2877502441407	-985.6852416992188	142.8049926757812	283.4080200195313	-984.7369384765625	44.88854217529297	66.1417541503907	-1068.494873046875	253.9449615478516	65.2639999389649	-1043.592407226562	202.4682159423828	68.95153808593756	-947.6082763671875	375.2512817382812	931.8690795898439	-1216.04345703125	nan	nan	nan	342.9762573242188	965.9782104492189	-1416.23779296875	297.7966613769531	824.6425781250001	-1474.946166992188	304.725830078125	759.3743286132814	-1470.749877929688	290.6101684570312	538.7364501953126	-1474.76513671875	270.2214050292969	476.6166992187501	-1481.6416015625	303.3615112304688	482.8384094238282	-1445.207885742188	281.3997802734375	386.0790405273439	-1461.361572265625	357.7489013671875	956.5897827148439	-1018.767272949219	322.306884765625	784.5409545898439	-982.2808227539062	326.0292663574219	725.1274414062501	-1010.335144042969	310.3628234863281	722.3807373046876	-962.5498657226562	300.3133239746094	525.7885131835939	-970.4041137695312	304.765380859375	469.4449157714844	-1001.920471191406	287.9721374511719	464.8805541992188	-953.9889526367188	277.224853515625	387.7301940917969	-951.8126220703125	260.7594604492188	773.0477294921876	-1493.970947265625	228.6065521240234	261.9844970703126	-2314.45361328125	45.99807739257812	998.3204956054689	-1205.6103515625	0.1823550015687943	0.03515329957008364	-0.3437800109386444	0.02738429978489876	0.2066400051116943	-0.1912830024957657	0.1154929995536804	0.0689390003681183	-0.1187800019979477	0.07972639799118042	1.696269989013672	-2.054569959640503	2.01446008682251	2.977710008621216	-1.952759981155395	2.856539964675903	0	0	
